HIERARCHY
ROOT Root
{
  OFFSET 5.39825 11.8871 -1.18907
  CHANNELS 6 Xposition Yposition Zposition Zrotation Xrotation Yrotation
  JOINT Spine
  {
    OFFSET 5.3114 0 0
    CHANNELS 3 Zrotation Xrotation Yrotation
    JOINT Spine1
    {
      OFFSET 2.79004 0 0
      CHANNELS 3 Zrotation Xrotation Yrotation
      JOINT Neck
      {
        OFFSET 1.43377 0 0
        CHANNELS 3 Zrotation Xrotation Yrotation
        JOINT Head
        {
          OFFSET 1.86043 0 0
          CHANNELS 3 Zrotation Xrotation Yrotation
          End Site
          {
            OFFSET 0 0 0
          }
        }
      }
      JOINT LeftArm
      {
        OFFSET 0.0387506 0 2.55754
        CHANNELS 3 Zrotation Xrotation Yrotation
        JOINT LeftForeArm
        {
          OFFSET 4.24845 0 0
          CHANNELS 3 Zrotation Xrotation Yrotation
          JOINT LeftHand
          {
            OFFSET 4.01008 0 0
            CHANNELS 3 Zrotation Xrotation Yrotation
            End Site
            {
              OFFSET 0 0 0
            }
          }
        }
      }
      JOINT RightArm
      {
        OFFSET 0.0387506 0 -2.55754
        CHANNELS 3 Zrotation Xrotation Yrotation
        JOINT RightForeArm
        {
          OFFSET -4.24845 0 0
          CHANNELS 3 Zrotation Xrotation Yrotation
          JOINT RightHand
          {
            OFFSET -4.01009 0 0
            CHANNELS 3 Zrotation Xrotation Yrotation
            End Site
            {
              OFFSET 0 0 0
            }
          }
        }
      }
    }
  }
  JOINT LeftUpLeg
  {
    OFFSET -1.23318 0 2.05692
    CHANNELS 3 Zrotation Xrotation Yrotation
    JOINT LeftLeg
    {
      OFFSET 5.46397 0 0
      CHANNELS 3 Zrotation Xrotation Yrotation
      JOINT LeftFoot
      {
        OFFSET 4.68898 0 0
        CHANNELS 3 Zrotation Xrotation Yrotation
        End Site
        {
          OFFSET 0 0 0
        }
      }
    }
  }
  JOINT RightUpLeg
  {
    OFFSET -1.24454 0 -2.05007
    CHANNELS 3 Zrotation Xrotation Yrotation
    JOINT RightLeg
    {
      OFFSET -5.46397 0 0
      CHANNELS 3 Zrotation Xrotation Yrotation
      JOINT RightFoot
      {
        OFFSET -4.68901 0 0
        CHANNELS 3 Zrotation Xrotation Yrotation
        End Site
        {
          OFFSET 0 0 0
        }
      }
    }
  }
}
MOTION
Frames:	12
Frame Time:	0.00833333
5.39825 11.8871 -1.18907 -0 90 90 9.69808e-018 1.34041e-020 0.158382 1.41245e-030 7.06225e-031 2.48481e-017 -7.30747e-017 7.61111e-019 -1.19349 3.40995e-017 1.65719e-019 0.556895 -2.12238e-008 -1.53545e-005 -90.1584 -2.50273e-005 -2.47192e-012 6.55612e-006 1.52588e-005 -6.98387e-015 174.455 180 -4.60993e-005 -89.8417 -5.49628e-005 -2.25992e-011 3.612e-005 1.52588e-005 6.98387e-015 174.455 -3.94647 -0.248689 -175.995 -8.5621 0.175962 -0.870067 4.60963 -0.077536 176.868 177.97 -0.126269 -176.037 -4.40375 0.0842387 -0.877245 2.37029 -0.0334797 176.598 
5.37166 11.8834 -1.31408 90.9471 64.5801 1.76696 -3.27728 0.215874 -1.0131 1.81693 0.0384509 0.393588 -5.48538 0.0496903 -2.02255 7.39913 0.129183 1.57 8.9505 -4.57384 -113.363 8.30298 0.554493 4.72005 -0.387174 -4.41462 174.444 -177.07 -0.919235 -112.062 6.64243 0.240694 3.82992 0.477879 5.44159 174.439 -7.91701 -0.763211 -178.479 -15.7232 -0.180935 -0.993354 10.9139 -1.57698 177.827 174.94 -2.10559 -177.222 -11.9083 -0.154609 -0.988337 0.262023 -4.44546 176.362 
5.34427 11.8803 -1.447 94.0223 37.7214 1.97612 -6.73733 0.447331 -2.24791 3.73803 0.0798866 0.805426 -11.2819 0.098369 -2.90204 15.218 0.25838 2.64715 12.8329 -17.3752 -136.318 16.9487 1.12047 9.69394 -0.802057 -9.09099 174.396 -175.118 -3.58748 -135.482 13.6069 0.487716 7.8663 0.994628 11.2236 174.365 -12.1544 -1.31365 178.892 -23.2692 -0.557724 -1.12319 17.6211 -3.1714 178.842 171.675 -4.21984 -178.477 -19.7862 -0.405761 -1.10419 -2.01737 -9.0948 176.084 
5.31849 11.876 -1.56408 97.0718 13.7609 2.34237 -9.80538 0.646611 -3.35624 5.44921 0.115331 1.18077 -16.4518 0.148856 -3.68069 22.1837 0.386931 3.59627 7.94582 -32.1153 -157.428 24.6379 1.61841 14.1653 -1.17959 -13.2431 174.321 -175.099 -6.76012 -156.382 19.8316 0.709196 11.4905 1.46783 16.3234 174.249 -15.9919 -1.7886 176.549 -30.0499 -0.894641 -1.24007 23.673 -4.579 179.745 168.636 -6.0709 -179.598 -26.9202 -0.632252 -1.21059 -4.07397 -13.2619 175.811 
5.29674 11.8686 -1.64155 99.4426 -2.97356 2.7597 -11.9127 0.766453 -4.1482 6.63674 0.135817 1.46486 -20.058 0.204018 -4.20724 27.025 0.514365 4.22525 -2.41772 -41.9588 -175.274 30.1186 1.98698 17.3757 -1.44562 -16.0854 174.25 -176.295 -9.02775 -171.037 24.2713 0.878417 14.0834 1.79698 19.7189 174.142 -18.7324 -2.08039 174.92 -34.9142 -1.13194 -1.32447 27.9783 -5.51864 -179.638 166.34 -7.26172 179.626 -32.1926 -0.797125 -1.29332 -5.48487 -16.229 175.609 
5.28045 11.8566 -1.66339 100.443 -9.60023 2.94874 -12.6917 0.772644 -4.49159 7.09116 0.134544 1.62201 -21.4697 0.264978 -4.38947 28.902 0.637537 4.41229 -8.63153 -45.7519 176.521 32.5883 2.20222 18.8197 -1.53948 -17.0688 174.222 -177.178 -10.0728 -176.767 26.2297 0.980004 15.2267 1.89591 20.7109 174.106 -19.8982 -2.1378 174.291 -37.0927 -1.22948 -1.36326 29.787 -5.80656 -179.422 165.194 -7.51729 179.337 -34.8092 -0.874857 -1.34161 -5.96705 -17.5461 175.531 
5.26807 11.8414 -1.6455 100.323 -9.01411 2.85913 -12.5231 0.697999 -4.51482 7.0221 0.117773 1.68845 -21.3148 0.330175 -4.32535 28.6633 0.757973 4.28335 -7.98696 -46.5995 177.721 32.9281 2.31753 19.001 -1.50664 -16.7259 174.232 -177.317 -10.4333 -176.045 26.424 1.03619 15.3345 1.8238 19.9873 174.131 -19.9308 -2.02848 174.378 -37.3526 -1.22721 -1.36946 29.8026 -5.62918 -179.494 164.883 -7.10612 179.396 -35.5308 -0.890392 -1.36535 -5.77354 -17.6839 175.551 
5.25754 11.825 -1.612 99.7662 -5.55736 2.66783 -11.9622 0.596038 -4.4188 6.74446 0.0961362 1.71731 -20.5441 0.398456 -4.14891 27.5703 0.882272 4.01795 -4.26864 -46.1657 -177.079 32.4162 2.39543 18.6742 -1.42745 -15.8935 174.255 -177.101 -10.5138 -172.74 25.9308 1.07885 15.0371 1.68803 18.6074 174.178 -19.5064 -1.82559 174.752 -36.847 -1.18557 -1.3627 29.108 -5.26144 -179.683 164.855 -6.44818 179.599 -35.5724 -0.882486 -1.38132 -5.27761 -17.3072 175.624 
5.24677 11.8096 -1.58699 99.4468 -3.57281 2.55704 -11.5646 0.52032 -4.40438 6.57313 0.0802621 1.76175 -20.108 0.468625 -3.99419 26.883 1.01694 3.79561 -2.05175 -46.0768 -173.847 32.3219 2.49474 18.5941 -1.38165 -15.4085 174.268 -177.052 -10.7198 -170.743 25.8232 1.13879 14.9645 1.59331 17.6306 174.208 -19.2995 -1.60245 174.984 -36.7293 -1.16497 -1.36265 28.7839 -4.97835 -179.818 164.566 -5.96347 179.739 -36.1489 -0.889888 -1.40627 -4.85397 -17.0804 175.702 
5.23572 11.7956 -1.5746 99.4571 -3.78017 2.55279 -11.4205 0.475677 -4.52302 6.56072 0.0704647 1.83413 -20.1711 0.540051 -3.87354 26.8068 1.1653 3.64622 -1.91598 -46.8276 -173.43 32.8642 2.62747 18.8917 -1.3823 -15.4144 174.267 -177.273 -11.1428 -170.712 26.2784 1.22009 15.2219 1.55921 17.2762 174.218 -19.4266 -1.35499 175 -37.2012 -1.17582 -1.37276 28.9997 -4.81159 -179.878 163.924 -5.71183 179.793 -37.4788 -0.920178 -1.44289 -4.56441 -17.1133 175.781 
5.22532 11.7817 -1.56275 99.4722 -4.00918 2.5693 -11.2528 0.436691 -4.66829 6.54973 0.0619147 1.90671 -20.2564 0.613485 -3.72327 26.7136 1.32337 3.48001 -1.76496 -47.4647 -172.989 33.4055 2.76322 19.1877 -1.38968 -15.4916 174.265 -177.511 -11.5628 -170.701 26.7599 1.30756 15.4942 1.53274 17.0001 174.226 -19.5498 -1.0519 175.015 -37.683 -1.18779 -1.38314 29.2191 -4.62836 -179.946 163.201 -5.48662 179.86 -38.9493 -0.953608 -1.48283 -4.22253 -17.074 175.882 
5.21499 11.7681 -1.55121 99.4869 -4.27006 2.59046 -11.0673 0.411619 -4.80424 6.53991 0.057528 1.97247 -20.3509 0.689774 -3.56336 26.612 1.48662 3.29709 -1.61131 -48.0022 -172.551 33.9274 2.89645 19.4726 -1.40303 -15.6316 174.261 -177.742 -12.0037 -170.691 27.2692 1.40277 15.7814 1.50572 16.7173 174.233 -19.6557 -0.726374 175.034 -38.1554 -1.20024 -1.39342 29.4595 -4.45708 179.993 162.405 -5.30841 179.919 -40.5284 -0.98793 -1.52633 -3.82774 -16.9642 176.003 
